<svg width="48" height="48" viewBox="0 0 48 48" fill="none" xmlns="http://www.w3.org/2000/svg">
<rect width="48" height="48" rx="11.25" fill="#f91a4e"/>
<g transform="translate(5.5 6.5) scale(0.7 0.7)">
<path fill-rule="evenodd" clip-rule="evenodd" d="M19.188 36.638c-1.8.552-3.612.828-5.436.828-2.616 0-4.968-.558-7.056-1.674-2.088-1.116-3.726-2.664-4.914-4.644C.594 29.168 0 26.93 0 24.434c0-2.496.594-4.734 1.782-6.714 1.188-1.98 2.838-3.528 4.95-4.644s4.488-1.674 7.128-1.674c2.208 0 4.212.372 6.012 1.116 1.8.744 3.311 1.824 4.535 3.24l-3.744 3.456c-1.8-1.896-3.971-2.844-6.515-2.844-1.608 0-3.036.336-4.284 1.008a7.232 7.232 0 00-2.916 2.844c-.696 1.224-1.044 2.628-1.044 4.212 0 1.56.348 2.952 1.044 4.176a7.383 7.383 0 002.898 2.862c1.236.684 2.646 1.026 4.23 1.026 1.68 0 3.192-.36 4.535-1.08v-7.38h5.328v10.224c-1.368 1.032-2.951 1.824-4.752 2.376zm19.943-8.352l-5.976 8.748H26.46l9.324-12.816-8.856-12.384h6.624l5.796 8.172 5.688-8.172h6.3L42.55 24.002l9.396 13.032h-6.732l-6.084-8.748z" fill="#fff"></path>
</g>
</svg>