<svg xmlns="http://www.w3.org/2000/svg" width="256" height="256" fill="#fff"><rect width="256" height="256" fill="#FA5C5C" rx="60"/><path d="M58.807 44.702C50.56 49.6 34.309 68.27 34.157 73.162v8.103c0 10.275 9.604 19.304 18.321 19.304 10.467 0 19.189-8.676 19.189-18.984 0 10.296 8.421 18.984 18.894 18.984s18.604-8.676 18.604-18.984c0 10.296 8.957 18.984 19.425 18.984h.19c10.468 0 19.425-8.676 19.425-18.984 0 10.296 8.151 18.984 18.605 18.984s18.892-8.676 18.892-18.984c0 10.296 8.733 18.984 19.19 18.984 8.733 0 18.32-9.03 18.32-19.303v-8.103c-.152-4.898-16.403-23.567-24.65-28.476-25.605-.885-43.375-1.037-69.862-1.037s-62.595.418-69.893 1.052zm50.24 51.026c-8.353 14.58-29.577 14.698-37.911.095-5.001 8.786-16.392 12.177-21.262 10.502-1.47 15.244-5.192 90.036 6.731 102.193 30.375 7.089 114.696 6.88 144.19 0 12.017-12.252 8.095-88.087 6.74-102.193-4.905 1.686-16.281-1.746-21.263-10.503-8.353 14.626-29.559 14.467-37.911-.09-2.697 4.742-8.753 10.988-19.654 10.988a21.848 21.848 0 01-19.649-10.989zM93.26 116.145c6.253 0 11.804 0 18.688 7.51a165.889 165.889 0 0133.48 0c6.896-7.484 12.45-7.484 18.7-7.484 19.87 0 24.764 29.437 31.845 54.846 6.553 23.598-2.096 24.174-12.89 24.198-16.004-.596-24.866-12.219-24.866-23.842-14.903 2.442-38.701 3.339-59.06 0 0 11.623-8.863 23.246-24.866 23.841-10.791-.022-19.44-.6-12.887-24.197 7.089-25.44 11.983-54.846 31.849-54.846zm35.44 18.17s-16.85 15.48-19.877 20.963l11.011-.444v9.614c0 .588 8.103.06 8.859.06 4.422.205 8.85.38 8.85-.06v-9.599l11.011.444c-3.037-5.498-19.876-20.973-19.876-20.973z"/></svg>