<svg xmlns="http://www.w3.org/2000/svg" width="256" height="256" fill="#fff"><rect width="256" height="256" fill="#FA5C5C" rx="60"/><path d="M50.341 34.669c-9.163 5.442-27.22 26.185-27.388 31.623v9.003c0 11.416 10.67 21.448 20.356 21.448 11.63 0 21.321-9.64 21.321-21.093 0 11.44 9.357 21.093 20.993 21.093s20.672-9.64 20.672-21.093c0 11.44 9.952 21.093 21.583 21.093h.21c11.632 0 21.584-9.64 21.584-21.093 0 11.44 9.057 21.093 20.672 21.093s20.992-9.64 20.992-21.093c0 11.44 9.703 21.093 21.322 21.093 9.703 0 20.355-10.032 20.355-21.448v-9.003c-.169-5.442-18.225-26.185-27.388-31.64C177.174 33.669 157.43 33.5 128 33.5s-69.55.464-77.659 1.169zm55.823 56.695c-9.282 16.2-32.864 16.331-42.124.106-5.557 9.762-18.213 13.53-23.625 11.669-1.633 16.938-5.768 100.04 7.48 113.548 33.75 7.876 127.44 7.644 160.21 0 13.353-13.614 8.995-97.875 7.489-113.548-5.45 1.873-18.09-1.94-23.625-11.67-9.281 16.251-32.843 16.074-42.124-.1-2.996 5.269-9.725 12.209-21.837 12.209a24.275 24.275 0 01-21.832-12.21zM88.622 114.05c6.948 0 13.116 0 20.765 8.344a184.321 184.321 0 0137.2 0c7.662-8.315 13.834-8.315 20.778-8.315 22.077 0 27.515 32.708 35.383 60.94 7.281 26.22-2.329 26.86-14.323 26.886-17.782-.662-27.628-13.576-27.628-26.49-16.559 2.713-43.002 3.709-65.623 0 0 12.914-9.847 25.828-27.629 26.49-11.99-.025-21.6-.667-14.318-26.886 7.876-28.266 13.314-60.94 35.387-60.94zM128 134.239s-18.723 17.2-22.085 23.292l12.234-.493v10.682c0 .653 9.003.067 9.843.067 4.914.228 9.833.422 9.833-.067v-10.665l12.235.493c-3.375-6.109-22.085-23.304-22.085-23.304z"/></svg>