<svg xmlns="http://www.w3.org/2000/svg" width="256" height="256" fill="none"><rect width="256" height="256" fill="#0A66C2" rx="60"/><path clip-rule="evenodd" fill-rule="evenodd" d="M86.125 70.5c0 10-7.5 17.5-19.375 17.5C55.5 88 48 80.5 48 70.5S55.5 53 67.375 53c11.25 0 18.75 7.5 18.75 17.5zm-1.875 31.875V204.25H49.875V102.375H84.25zm122.5 101.875V145.5c0-31.25-16.875-45.625-39.375-45.625-18.125 0-26.25 10-30.625 16.875v-14.375H103V204.25h33.75v-56.875c0-3.125 0-6.25 1.25-8.125 2.5-6.25 8.125-12.5 17.5-12.5 11.875 0 16.875 9.375 16.875 23.125v54.375h34.375z" fill="#fff"/></svg>