<svg width="48" height="48" fill="none" xmlns="http://www.w3.org/2000/svg"><rect width="48" height="48" rx="11.25" fill="red"/><path d="M36.265 18.073c-.294-1.13-1.162-2.021-2.263-2.324C32.005 15.2 24 15.2 24 15.2s-8.005 0-10.002.55c-1.101.302-1.969 1.192-2.263 2.323-.535 2.05-.535 6.327-.535 6.327s0 4.277.535 6.327c.294 1.13 1.162 2.021 2.263 2.324C15.995 33.6 24 33.6 24 33.6s8.005 0 10.002-.55c1.101-.302 1.969-1.192 2.263-2.323.535-2.05.535-6.327.535-6.327s0-4.277-.535-6.327" fill="#fff"/><path d="M21.6 28.8v-8l6.4 4-6.4 4z" fill="red"/></svg>